<svg xmlns="http://www.w3.org/2000/svg" width="680" height="420" font-family="'JetBrains Mono','Fira Code',monospace" font-size="13">
  <rect width="680" height="420" rx="8" fill="#1e1e2e"/>
  <!-- Title bar -->
  <rect width="680" height="32" rx="8" fill="#313244"/>
  <circle cx="20" cy="16" r="6" fill="#f38ba8"/>
  <circle cx="40" cy="16" r="6" fill="#f9e2af"/>
  <circle cx="60" cy="16" r="6" fill="#a6e3a1"/>
  <text x="340" y="20" text-anchor="middle" fill="#cdd6f4" font-size="12">passauto — encrypted expect in one binary</text>
  <!-- Terminal content -->
  <g fill="#cdd6f4">
    <text x="16" y="60" fill="#89b4fa">$</text>
    <text x="30" y="60">passauto add myserver -c "ssh deploy@prod" -m "password:"</text>
    <text x="16" y="82" fill="#a6e3a1">✓ Enter secret for myserver: ****</text>
    <text x="16" y="104" fill="#a6e3a1">✓ Profile "myserver" saved (encrypted)</text>

    <text x="16" y="136" fill="#89b4fa">$</text>
    <text x="30" y="136">passauto myserver</text>
    <text x="16" y="158" fill="#585b70">Launching: ssh deploy@prod</text>
    <text x="16" y="180" fill="#f9e2af">password: </text>
    <text x="95" y="180" fill="#a6e3a1">••••  (auto-filled)</text>
    <text x="16" y="202" fill="#a6e3a1">✓ Connected to prod</text>

    <text x="16" y="234" fill="#89b4fa">$</text>
    <text x="30" y="234">passauto list</text>
    <text x="16" y="258" fill="#585b70">  NAME      COMMAND         DESCRIPTION</text>
    <text x="16" y="276" fill="#585b70">  ────────  ──────────────  ───────────────</text>
    <text x="16" y="294">  myserver  ssh deploy@srv  password:</text>
    <text x="16" y="312">  mydb      psql -h db -U…  password</text>
    <text x="16" y="330">  redis     redis-cli -h…   AUTH:</text>

    <text x="16" y="362" fill="#89b4fa">$</text>
    <text x="30" y="362">passauto myserver --dry-run</text>
    <text x="16" y="384" fill="#585b70">Command: ssh deploy@prod</text>
    <text x="16" y="402" fill="#585b70">Patterns: (?i)password:</text>
  </g>
</svg>
